<svg xmlns="http://www.w3.org/2000/svg" xmlns:xlink="http://www.w3.org/1999/xlink" width="24.009" height="18.69" viewBox="0 0 24.009 18.69">
  <defs>
    <linearGradient id="linear-gradient" x1="0.5" x2="0.5" y2="1" gradientUnits="objectBoundingBox">
      <stop offset="0.013" stop-color="#00c5ff"/>
      <stop offset="0.168" stop-color="#01c0fd"/>
      <stop offset="0.335" stop-color="#06b3fa"/>
      <stop offset="0.507" stop-color="#0f9ef4"/>
      <stop offset="0.684" stop-color="#1b7fec"/>
      <stop offset="0.861" stop-color="#2a59e1"/>
      <stop offset="1" stop-color="#3836d8"/>
    </linearGradient>
  </defs>
  <g id="eye" transform="translate(0.004 -2.655)">
    <path id="Path_5079" data-name="Path 5079" d="M23.271,9.419C21.72,6.893,18.192,2.655,12,2.655S2.28,6.893.729,9.419a4.908,4.908,0,0,0,0,5.162C2.28,17.107,5.808,21.345,12,21.345s9.72-4.238,11.271-6.764A4.908,4.908,0,0,0,23.271,9.419Zm-1.7,4.115C20.234,15.7,17.219,19.345,12,19.345S3.766,15.7,2.434,13.534a2.918,2.918,0,0,1,0-3.068C3.766,8.3,6.781,4.655,12,4.655s8.234,3.641,9.566,5.811A2.918,2.918,0,0,1,21.566,13.534Z" fill="url(#linear-gradient)"/>
    <path id="Path_5080" data-name="Path 5080" d="M12,7a5,5,0,1,0,5,5,5,5,0,0,0-5-5Zm0,8a3,3,0,1,1,3-3A3,3,0,0,1,12,15Z" fill="url(#linear-gradient)"/>
  </g>
</svg>
