<svg xmlns="http://www.w3.org/2000/svg" width="74.808" height="87.928" viewBox="0 0 74.808 87.928">
  <g id="Group_170" data-name="Group 170" transform="translate(11.884)">
    <g id="Group_169" data-name="Group 169">
      <g id="Group_167" data-name="Group 167">
        <path id="Path_2357" data-name="Path 2357" d="M221.538,1163c-.058-.641-.122-1.281-.2-1.915a41.589,41.589,0,0,0-35.842-35.835,25.525,25.525,0,0,1,41.3,20.06A33.834,33.834,0,0,1,221.538,1163Z" transform="translate(-175.753 -1119.789)" fill="#009eff"/>
        <path id="Path_2358" data-name="Path 2358" d="M215.044,1149.131a27.178,27.178,0,0,1-.274,3.852,25.943,25.943,0,0,1-5.112.512,25.461,25.461,0,0,1-7.733-1.2,13.53,13.53,0,0,0,.367-3.168,13.792,13.792,0,0,0-13.8-13.8,13.985,13.985,0,0,0-3.168.367,25.782,25.782,0,0,1-.677-12.844,27.052,27.052,0,0,1,3.845-.274A26.545,26.545,0,0,1,215.044,1149.131Z" transform="translate(-184.142 -1102.453)" fill="#2700ca"/>
        <path id="Path_2359" data-name="Path 2359" d="M187.246,1123.561a26.2,26.2,0,0,1,6.991,23.594c.432-.065.864-.137,1.289-.223a27.178,27.178,0,0,0,.274-3.852A26.465,26.465,0,0,0,187.246,1123.561Z" transform="translate(-164.897 -1096.401)" fill="#096aca"/>
        <path id="Path_2360" data-name="Path 2360" d="M201.27,1138.151a13.53,13.53,0,0,1-.367,3.168,25.569,25.569,0,0,1-16.6-16.6,13.985,13.985,0,0,1,3.168-.367A13.792,13.792,0,0,1,201.27,1138.151Z" transform="translate(-183.119 -1091.473)" fill="#5200ca"/>
        <path id="Path_2361" data-name="Path 2361" d="M229.487,1158.3a32.751,32.751,0,0,1-15.79,12.758.432.432,0,0,1-.569-.54,25.877,25.877,0,0,0,1.2-4.9,27.178,27.178,0,0,0,.274-3.852,26.534,26.534,0,0,0-26.539-26.547,27.077,27.077,0,0,0-3.852.274,25.491,25.491,0,0,1,9.23-14.948,41.589,41.589,0,0,1,35.842,35.835C229.364,1157.015,229.429,1157.656,229.487,1158.3Z" transform="translate(-183.702 -1115.088)" fill="#0053f7"/>
      </g>
      <g id="Group_168" data-name="Group 168" transform="translate(9.144 21.334)">
        <path id="Path_2362" data-name="Path 2362" d="M191.108,1122.752a3.974,3.974,0,1,0,3.982,3.974,3.978,3.978,0,0,0-3.982-3.974" transform="translate(-174.736 -1122.752)" fill="#fff" fill-rule="evenodd"/>
        <path id="Path_2363" data-name="Path 2363" d="M192.824,1122.752a3.974,3.974,0,1,0,3.982,3.974A3.967,3.967,0,0,0,192.824,1122.752Z" transform="translate(-164.053 -1122.752)" fill="#fff" fill-rule="evenodd"/>
        <path id="Path_2364" data-name="Path 2364" d="M193.368,1126.726a3.978,3.978,0,1,0-3.974,3.975A3.978,3.978,0,0,0,193.368,1126.726Z" transform="translate(-185.412 -1122.752)" fill="#fff" fill-rule="evenodd"/>
      </g>
    </g>
    <ellipse id="Ellipse_159" data-name="Ellipse 159" cx="19.404" cy="2.213" rx="19.404" ry="2.213" transform="translate(6.116 65.502)" fill="#8aa1b3" opacity="0.33"/>
  </g>
</svg>
