<svg id="Group_158" data-name="Group 158" xmlns="http://www.w3.org/2000/svg" xmlns:xlink="http://www.w3.org/1999/xlink" width="21.35" height="21.902" viewBox="0 0 21.35 21.902">
  <defs>
    <linearGradient id="linear-gradient" y1="0.5" x2="1" y2="0.5" gradientUnits="objectBoundingBox">
      <stop offset="0.009" stop-color="#009eff"/>
      <stop offset="0.156" stop-color="#0299fd"/>
      <stop offset="0.315" stop-color="#098cf9"/>
      <stop offset="0.479" stop-color="#1477f1"/>
      <stop offset="0.647" stop-color="#2358e7"/>
      <stop offset="0.819" stop-color="#3831da"/>
      <stop offset="0.99" stop-color="#5003cb"/>
      <stop offset="1" stop-color="#5200ca"/>
    </linearGradient>
  </defs>
  <path id="Path_2354" data-name="Path 2354" d="M112.8,1064.592q8.014,4.092,16.034,8.186,2.041,1.036,4.082,2.088a.754.754,0,0,1,.5.619.736.736,0,0,1-.432.764q-1.3.658-2.592,1.325-8.586,4.4-17.158,8.784a1.374,1.374,0,0,1-.612.137.549.549,0,0,1-.533-.569,4.991,4.991,0,0,1,.137-.922c.547-2.477,1.109-4.946,1.663-7.423a.216.216,0,0,1,.2-.2c1.13-.195,2.261-.389,3.384-.59,1.282-.224,2.556-.439,3.83-.663l2.866-.5.144-.043a.815.815,0,0,0-.151-.072l-3.974-.692c-1.267-.215-2.542-.438-3.809-.662-.763-.13-1.526-.267-2.29-.4a.21.21,0,0,1-.2-.2c-.59-2.643-1.188-5.285-1.771-7.927a.806.806,0,0,1,.094-.756,2.247,2.247,0,0,1,.461-.288Z" transform="translate(-112.064 -1064.592)" fill="url(#linear-gradient)"/>
</svg>
